PathFileType	4	(X/Y/Z)	 3.0Hz3min.trc
DataRate	CameraRate	NumFrames	NumMarkers	Units	OrigDataRate	OrigDataStartFrame	OrigNumFrames
200	200	8	43	m	200	376	1000
Frame#	Time	C7			LSH			RSH			MAN			RASI			LASI			HIPR			HIPL			RPSI			LPSI			COX			RTHI1			RTHI2			RTHI3			RTHI4			RLKN			RMKN			RSHA1			RSHA2			RSHA3			RSHA4			RLMAL			RMMAL			RHEEL			RMET5			RMET1			RTOE			LTHI1			LTHI2			LTHI3			LTHI4			LLKN			LMKN			LSHA1			LSHA2			LSHA3			LSHA4			LLMAL			LMMAL			LHEEL			LMET5			LMET1			LTOE			
		X1	Y1	Z1	X2	Y2	Z2	X3	Y3	Z3	X4	Y4	Z4	X5	Y5	Z5	X6	Y6	Z6	X7	Y7	Z7	X8	Y8	Z8	X9	Y9	Z9	X10	Y10	Z10	X11	Y11	Z11	X12	Y12	Z12	X13	Y13	Z13	X14	Y14	Z14	X15	Y15	Z15	X16	Y16	Z16	X17	Y17	Z17	X18	Y18	Z18	X19	Y19	Z19	X20	Y20	Z20	X21	Y21	Z21	X22	Y22	Z22	X23	Y23	Z23	X24	Y24	Z24	X25	Y25	Z25	X26	Y26	Z26	X27	Y27	Z27	X28	Y28	Z28	X29	Y29	Z29	X30	Y30	Z30	X31	Y31	Z31	X32	Y32	Z32	X33	Y33	Z33	X34	Y34	Z34	X35	Y35	Z35	X36	Y36	Z36	X37	Y37	Z37	X38	Y38	Z38	X39	Y39	Z39	X40	Y40	Z40	X41	Y41	Z41	X42	Y42	Z42	X43	Y43	Z43	
376	1.8800	-0.317134	1.528994	-0.579569	-0.249635	1.504684	-0.779389	-0.225132	1.493498	-0.392381	-0.181912	1.449920	-0.589353	-0.163779	1.018815	-0.458528	-0.174016	1.024481	-0.706500	-0.250173	1.075942	-0.417561	-0.257048	1.066921	-0.740363	-0.347715	1.058258	-0.521413	-0.352841	1.050434	-0.624338	-0.356208	1.050128	-0.571423	-0.212670	0.746015	-0.377296	-0.199472	0.687046	-0.379001	-0.136516	0.698175	-0.390686	-0.141553	0.759467	-0.389462	-0.184261	0.500570	-0.391278	-0.179572	0.471126	-0.502007	-0.294579	0.343211	-0.366676	-0.312987	0.305427	-0.376775	-0.244082	0.323861	-0.366623	-0.255419	0.285056	-0.370900	-0.354922	0.133798	-0.385234	-0.316010	0.129651	-0.464251	-0.404253	0.124241	-0.438265	-0.267472	0.046296	-0.350820	-0.212006	0.049712	-0.413674	-0.189094	0.040284	-0.412110	-0.236967	0.751705	-0.772814	-0.224342	0.691507	-0.772478	-0.159650	0.698579	-0.772408	-0.164654	0.758419	-0.773712	-0.209679	0.495737	-0.761201	-0.201741	0.476218	-0.647737	-0.320404	0.330181	-0.766795	-0.337088	0.294626	-0.757161	-0.279967	0.271921	-0.761175	-0.269274	0.313275	-0.772320	-0.376145	0.132174	-0.747659	-0.343916	0.142576	-0.667336	-0.428463	0.133933	-0.691702	-0.296399	0.044918	-0.777534	-0.241197	0.047382	-0.713277	-0.217426	0.039448	-0.723538	
377	1.8850	-0.317376	1.530712	-0.579602	-0.250119	1.506477	-0.779288	-0.225427	1.495570	-0.392635	-0.182306	1.451866	-0.589463	-0.163747	1.020733	-0.458746	-0.174001	1.026670	-0.706130	-0.249623	1.078452	-0.417971	-0.256587	1.069781	-0.740195	-0.347399	1.060837	-0.521400	-0.352497	1.052946	-0.624622	-0.355937	1.052684	-0.571556	-0.213145	0.747733	-0.377345	-0.200061	0.688756	-0.379005	-0.137042	0.699765	-0.390572	-0.141971	0.761069	-0.389363	-0.184956	0.502038	-0.391224	-0.180363	0.472554	-0.501989	-0.294755	0.344362	-0.366378	-0.313113	0.306498	-0.376469	-0.244184	0.325180	-0.366433	-0.255422	0.286312	-0.370741	-0.354619	0.134707	-0.384831	-0.315807	0.130766	-0.463897	-0.404003	0.125209	-0.437799	-0.267133	0.047138	-0.351025	-0.211805	0.050473	-0.413191	-0.188942	0.040962	-0.411473	-0.236719	0.753524	-0.773018	-0.224177	0.693318	-0.772729	-0.159473	0.700315	-0.772579	-0.164404	0.760151	-0.773832	-0.209803	0.497275	-0.761451	-0.201835	0.477795	-0.647935	-0.320109	0.331387	-0.766784	-0.336761	0.295870	-0.757207	-0.279602	0.273240	-0.761264	-0.268990	0.314626	-0.772434	-0.375595	0.133292	-0.747687	-0.343115	0.143783	-0.667464	-0.427723	0.135204	-0.691533	-0.296216	0.045740	-0.777226	-0.240878	0.047926	-0.713852	-0.217283	0.039757	-0.724313	
378	1.8900	-0.317572	1.532219	-0.579631	-0.250559	1.507992	-0.779217	-0.225645	1.497343	-0.392879	-0.182653	1.453526	-0.589580	-0.163753	1.022392	-0.458985	-0.174030	1.028604	-0.705784	-0.249114	1.080685	-0.418377	-0.256157	1.072398	-0.740063	-0.347170	1.063195	-0.521390	-0.352220	1.055233	-0.624888	-0.355710	1.055030	-0.571679	-0.213640	0.749213	-0.377446	-0.200638	0.690245	-0.379074	-0.137565	0.701139	-0.390477	-0.142402	0.762454	-0.389271	-0.185512	0.503284	-0.391232	-0.181066	0.473751	-0.502000	-0.294915	0.345355	-0.366108	-0.313269	0.307432	-0.376222	-0.244284	0.326295	-0.366290	-0.255475	0.287392	-0.370611	-0.354437	0.135493	-0.384472	-0.315746	0.131759	-0.463592	-0.403919	0.126018	-0.437354	-0.266839	0.048006	-0.351130	-0.211628	0.051359	-0.412763	-0.188796	0.041816	-0.410909	-0.236485	0.755083	-0.773159	-0.223994	0.694875	-0.772917	-0.159277	0.701837	-0.772726	-0.164167	0.761670	-0.773929	-0.209787	0.498580	-0.761668	-0.201872	0.479157	-0.648095	-0.319781	0.332435	-0.766790	-0.336417	0.296953	-0.757253	-0.279233	0.274376	-0.761313	-0.268671	0.315786	-0.772522	-0.375136	0.134302	-0.747696	-0.342438	0.144870	-0.667555	-0.427110	0.136308	-0.691363	-0.296045	0.046559	-0.776989	-0.240530	0.048552	-0.714408	-0.217107	0.040139	-0.725101	
379	1.8950	-0.317726	1.533501	-0.579654	-0.250963	1.509227	-0.779176	-0.225809	1.498821	-0.393108	-0.182956	1.454901	-0.589705	-0.163798	1.023790	-0.459244	-0.174105	1.030286	-0.705461	-0.248655	1.082631	-0.418774	-0.255764	1.074760	-0.739971	-0.347014	1.065282	-0.521365	-0.352016	1.057289	-0.625139	-0.355538	1.057155	-0.571792	-0.214148	0.750460	-0.377592	-0.201199	0.691493	-0.379196	-0.138065	0.702293	-0.390405	-0.142838	0.763603	-0.389196	-0.185945	0.504296	-0.391290	-0.181675	0.474723	-0.502038	-0.295072	0.346194	-0.365864	-0.313431	0.308226	-0.375991	-0.244395	0.327190	-0.366192	-0.255570	0.288296	-0.370505	-0.354372	0.136181	-0.384142	-0.315826	0.132614	-0.463343	-0.403993	0.126683	-0.436958	-0.266603	0.048914	-0.351151	-0.211492	0.052367	-0.412420	-0.188661	0.042841	-0.410449	-0.236271	0.756384	-0.773232	-0.223787	0.696178	-0.773040	-0.159066	0.703143	-0.772847	-0.163949	0.762971	-0.774003	-0.209634	0.499644	-0.761858	-0.201838	0.480282	-0.648222	-0.319444	0.333325	-0.766806	-0.336070	0.297868	-0.757295	-0.278872	0.275336	-0.761329	-0.268343	0.316756	-0.772584	-0.374772	0.135197	-0.747687	-0.341901	0.145841	-0.667611	-0.426632	0.137237	-0.691187	-0.295870	0.047373	-0.776816	-0.240175	0.049257	-0.714949	-0.216908	0.040607	-0.725883	
380	1.9000	-0.317839	1.534549	-0.579674	-0.251321	1.510178	-0.779156	-0.225890	1.499973	-0.393323	-0.183213	1.455993	-0.589836	-0.163883	1.024931	-0.459522	-0.174227	1.031709	-0.705167	-0.248257	1.084277	-0.419151	-0.255419	1.076830	-0.739917	-0.346937	1.067094	-0.521345	-0.351885	1.059088	-0.625366	-0.355431	1.059034	-0.571891	-0.214632	0.751473	-0.377771	-0.201722	0.692492	-0.379362	-0.138533	0.703224	-0.390370	-0.143250	0.764524	-0.389150	-0.186276	0.505093	-0.391366	-0.182185	0.475473	-0.502092	-0.295229	0.346883	-0.365653	-0.313622	0.308865	-0.375808	-0.244525	0.327895	-0.366125	-0.255710	0.289030	-0.370421	-0.354450	0.136821	-0.383902	-0.316029	0.133336	-0.463144	-0.404224	0.127191	-0.436617	-0.266454	0.049830	-0.351108	-0.211417	0.053463	-0.412170	-0.188568	0.044007	-0.410125	-0.236075	0.757429	-0.773239	-0.223557	0.697231	-0.773101	-0.158838	0.704232	-0.772938	-0.163750	0.764050	-0.774051	-0.209346	0.500475	-0.762021	-0.201720	0.481173	-0.648325	-0.319110	0.334069	-0.766831	-0.335737	0.298641	-0.757328	-0.278547	0.276117	-0.761319	-0.268018	0.317547	-0.772627	-0.374513	0.135964	-0.747663	-0.341507	0.146669	-0.667632	-0.426293	0.137975	-0.691008	-0.295723	0.048202	-0.776707	-0.239830	0.050024	-0.715469	-0.216696	0.041183	-0.726660	
381	1.9050	-0.317913	1.535351	-0.579692	-0.251637	1.510829	-0.779166	-0.225915	1.500821	-0.393519	-0.183438	1.456793	-0.589978	-0.164009	1.025826	-0.459817	-0.174404	1.032868	-0.704905	-0.247930	1.085616	-0.419499	-0.255134	1.078607	-0.739891	-0.346938	1.068622	-0.521326	-0.351831	1.060615	-0.625570	-0.355388	1.060650	-0.571973	-0.215066	0.752243	-0.377975	-0.202182	0.693249	-0.379560	-0.138943	0.703939	-0.390380	-0.143625	0.765218	-0.389145	-0.186497	0.505697	-0.391477	-0.182589	0.476000	-0.502158	-0.295388	0.347434	-0.365481	-0.313838	0.309369	-0.375656	-0.244671	0.328413	-0.366073	-0.255914	0.289592	-0.370356	-0.354651	0.137357	-0.383690	-0.316339	0.133922	-0.462991	-0.404585	0.127531	-0.436347	-0.266393	0.050742	-0.351035	-0.211421	0.054589	-0.412020	-0.188535	0.045258	-0.409938	-0.235900	0.758215	-0.773191	-0.223311	0.698032	-0.773103	-0.158592	0.705105	-0.772996	-0.163571	0.764915	-0.774066	-0.208928	0.501083	-0.762165	-0.201502	0.481834	-0.648413	-0.318794	0.334683	-0.766861	-0.335438	0.299277	-0.757346	-0.278268	0.276744	-0.761293	-0.267715	0.318168	-0.772649	-0.374367	0.136613	-0.747629	-0.341254	0.147366	-0.667626	-0.426097	0.138526	-0.690829	-0.295595	0.049047	-0.776664	-0.239520	0.050862	-0.715984	-0.216483	0.041888	-0.727436	
382	1.9100	-0.317951	1.535898	-0.579711	-0.251925	1.511185	-0.779209	-0.225859	1.501349	-0.393710	-0.183620	1.457317	-0.590125	-0.164183	1.026471	-0.460122	-0.174636	1.033755	-0.704682	-0.247690	1.086638	-0.419813	-0.254922	1.080044	-0.739896	-0.347024	1.069853	-0.521312	-0.351847	1.061857	-0.625742	-0.355412	1.061986	-0.572039	-0.215432	0.752783	-0.378197	-0.202562	0.693751	-0.379767	-0.139281	0.704436	-0.390442	-0.143938	0.765688	-0.389192	-0.186636	0.506122	-0.391597	-0.182888	0.476318	-0.502229	-0.295548	0.347826	-0.365348	-0.314085	0.309747	-0.375542	-0.244829	0.328739	-0.366030	-0.256193	0.289951	-0.370335	-0.354965	0.137778	-0.383502	-0.316752	0.134370	-0.462884	-0.405070	0.127723	-0.436148	-0.266409	0.051620	-0.350973	-0.211517	0.055659	-0.411962	-0.188583	0.046497	-0.409866	-0.235742	0.758749	-0.773097	-0.223048	0.698578	-0.773055	-0.158336	0.705769	-0.773015	-0.163413	0.765554	-0.774043	-0.208383	0.501476	-0.762292	-0.201196	0.482254	-0.648498	-0.318508	0.335168	-0.766893	-0.335180	0.299796	-0.757351	-0.278040	0.277219	-0.761260	-0.267443	0.318636	-0.772663	-0.374335	0.137142	-0.747593	-0.341103	0.147948	-0.667614	-0.426036	0.138879	-0.690646	-0.295503	0.049893	-0.776687	-0.239255	0.051750	-0.716496	-0.216279	0.042709	-0.728188	
383	1.9150	-0.317956	1.536190	-0.579730	-0.252173	1.511247	-0.779275	-0.225754	1.501588	-0.393866	-0.183768	1.457564	-0.590280	-0.164395	1.026868	-0.460437	-0.174926	1.034372	-0.704502	-0.247541	1.087340	-0.420094	-0.254799	1.081133	-0.739922	-0.347187	1.070792	-0.521310	-0.351936	1.062806	-0.625890	-0.355502	1.063029	-0.572090	-0.215711	0.753084	-0.378422	-0.202847	0.694018	-0.379976	-0.139532	0.704717	-0.390563	-0.144168	0.765952	-0.389302	-0.186719	0.506338	-0.391703	-0.183086	0.476430	-0.502301	-0.295720	0.348063	-0.365253	-0.314332	0.309988	-0.375433	-0.245004	0.328895	-0.365999	-0.256472	0.290145	-0.370324	-0.355364	0.138068	-0.383343	-0.317257	0.134659	-0.462814	-0.405634	0.127741	-0.435980	-0.266503	0.052414	-0.350949	-0.211705	0.056634	-0.411993	-0.188712	0.047643	-0.409898	-0.235598	0.759025	-0.772967	-0.222770	0.698874	-0.772961	-0.158070	0.706210	-0.772986	-0.163279	0.765973	-0.773981	-0.207728	0.501667	-0.762410	-0.200780	0.482448	-0.648586	-0.318246	0.335527	-0.766908	-0.334969	0.300206	-0.757345	-0.277866	0.277546	-0.761237	-0.267212	0.318949	-0.772677	-0.374413	0.137538	-0.747558	-0.341054	0.148396	-0.667598	-0.426099	0.139047	-0.690462	-0.295455	0.050729	-0.776784	-0.239053	0.052657	-0.717006	-0.216107	0.043619	-0.728907	
